<svg xmlns="http://www.w3.org/2000/svg" x="0px" y="0px" viewBox="0 0 130 44">
  <style type="text/css">
  .fill { fill: #ffffff; }
  </style>
  <g>
    <path class="fill" d="M12.1,13.8l4.1,14l4-14h6.5l4.1,14l4.1-14h6.6L34,34.4h-6.7l-3.9-12.7l-4,12.7h-6.7L5.2,13.8H12.1z" />
    <path class="fill" d="M50.8,7.9c0,2.1-1.5,3.6-3.6,3.6s-3.6-1.5-3.6-3.6s1.5-3.6,3.6-3.6S50.8,5.8,50.8,7.9z M50.6,13.8v20.6h-6.7
		V13.8H50.6z" />
    <path class="fill" d="M69.2,13.5v6.2c-3.8-0.4-6.3,1.3-6.6,4.2v10.5h-6.8V13.8h6.8v3.4C64,14.8,66.3,13.5,69.2,13.5z" />
    <path class="fill" d="M91.7,25.9H77.3c0.6,2.3,2.4,3.6,4.7,3.6c1.8,0,3.5-0.7,4.8-2.1l3.5,3.5c-2.1,2.4-5.2,3.7-9,3.7
		c-6.8,0-10.9-4.2-10.9-10.4c0-6.4,4.3-10.6,10.8-10.6C88.5,13.5,92.1,18.4,91.7,25.9z M85.1,22.3c0-2.4-1.5-4-3.8-4
		c-2.2,0-3.7,1.6-4.1,4H85.1z" />
    <path class="fill" d="M116,6.1v28.3h-6.8v-2.7c-1.4,1.9-3.5,2.9-6.1,2.9c-5.8,0-9.6-4.3-9.6-10.7c0-6.3,3.8-10.4,9.5-10.4
		c2.7,0,4.8,1.1,6.3,2.9V6.1H116z M109.2,24.2c0-3.1-1.8-5.1-4.4-5.1c-2.7,0-4.5,2.1-4.5,5.1c0,3,1.8,5.1,4.5,5.1
		C107.4,29.3,109.2,27.2,109.2,24.2z" />
    <path class="fill" d="M126.7,31.4c0,1.9-1.4,3.3-3.3,3.3c-1.9,0-3.2-1.4-3.2-3.3c0-1.9,1.3-3.3,3.2-3.3
		C125.3,28.1,126.7,29.4,126.7,31.4z" />
  </g>
</svg>
